<svg clip-rule="evenodd" fill-rule="evenodd" height="335" image-rendering="optimizeQuality" shape-rendering="geometricPrecision" text-rendering="geometricPrecision" viewBox="0 0 1209.82 330.78" width="1226" xmlns="http://www.w3.org/2000/svg"><g fill="#4c4c4c" fill-rule="nonzero"><path d="m26.57 285.47c0-3.94.68-7.33 2.03-10.18 1.36-2.84 3.14-5.19 5.33-7.03 2.19-1.85 4.71-3.2 7.55-4.08s5.74-1.33 8.7-1.33c3.4 0 6.44.42 9.13 1.23 2.69.82 4.61 1.74 5.79 2.77-.43.91-.82 1.86-1.16 2.86-.34 1.01-.63 2.05-.88 3.14h-.74c-.43-.79-1.02-1.59-1.77-2.41-.73-.82-1.61-1.57-2.63-2.27-1.03-.69-2.15-1.27-3.38-1.72-1.23-.46-2.59-.69-4.08-.69-2.78 0-5.17.5-7.17 1.5-2.01 1-3.65 2.38-4.92 4.13-1.26 1.76-2.19 3.83-2.78 6.23-.59 2.39-.87 4.97-.87 7.76 0 6.24 1.35 10.94 4.07 14.12s6.7 4.77 11.95 4.77c1.23 0 2.5-.17 3.8-.5 1.29-.33 2.56-.79 3.79-1.37 1.25-.57 2.4-1.26 3.48-2.04s2.03-1.64 2.83-2.54l.46.27c-.31 1.45-.5 2.94-.55 4.46-1.86 1.44-4.16 2.68-6.91 3.71s-5.6 1.54-8.57 1.54c-2.66 0-5.33-.37-8.01-1.13-2.69-.75-5.11-2.02-7.27-3.81-2.16-1.78-3.91-4.1-5.23-6.95-1.33-2.85-1.99-6.33-1.99-10.44z"/><path d="m103.72 285.47c0 2.54.23 4.99.7 7.36.46 2.35 1.25 4.46 2.36 6.3 1.11 1.85 2.59 3.32 4.44 4.42 1.86 1.07 4.14 1.63 6.85 1.63 2.73 0 5.01-.56 6.86-1.63 1.86-1.1 3.34-2.57 4.45-4.42 1.11-1.84 1.9-3.95 2.36-6.3.46-2.37.7-4.82.7-7.36 0-2.55-.24-4.99-.7-7.35-.46-2.37-1.25-4.47-2.36-6.32-1.11-1.84-2.59-3.31-4.45-4.41-1.85-1.08-4.13-1.63-6.86-1.63-2.71 0-4.99.55-6.85 1.63-1.85 1.1-3.33 2.57-4.44 4.41-1.11 1.85-1.9 3.95-2.36 6.32-.47 2.36-.7 4.8-.7 7.35zm-8.15 0c0-4.11.67-7.62 1.99-10.49s3.07-5.21 5.24-6.99c2.15-1.79 4.58-3.09 7.27-3.91 2.68-.81 5.36-1.23 8-1.23 2.73 0 5.41.42 8.07 1.23 2.65.82 5.06 2.12 7.22 3.91 2.16 1.78 3.9 4.12 5.24 6.99 1.32 2.87 1.99 6.38 1.99 10.49s-.67 7.61-1.99 10.48c-1.34 2.88-3.08 5.22-5.24 7-2.16 1.79-4.57 3.04-7.22 3.77-2.66.73-5.34 1.08-8.07 1.08-2.64 0-5.32-.35-8-1.08-2.69-.73-5.12-1.98-7.27-3.77-2.17-1.78-3.92-4.12-5.24-7-1.32-2.87-1.99-6.37-1.99-10.48z"/><path d="m175.09 300.45c.65.73 1.41 1.41 2.31 2.05.9.63 1.92 1.17 3.06 1.59 1.15.42 2.36.63 3.66.63 1.18 0 2.3-.18 3.38-.54 1.09-.37 2.03-.88 2.88-1.55.82-.67 1.49-1.51 1.99-2.55.49-1.02.73-2.2.73-3.53 0-1.88-.53-3.31-1.61-4.32-1.09-.99-2.43-1.82-4.04-2.45s-3.36-1.19-5.28-1.68c-1.91-.48-3.67-1.17-5.28-2.04-1.6-.87-2.94-2.04-4.02-3.5-1.08-1.45-1.63-3.44-1.63-5.99 0-2 .35-3.82 1.03-5.49s1.66-3.1 2.95-4.32c1.3-1.21 2.91-2.16 4.83-2.85 1.91-.7 4.1-1.06 6.57-1.06 2.29 0 4.21.31 5.79.91 1.57.61 3.07 1.16 4.49 1.64-.49.91-.95 2.03-1.39 3.36-.43 1.33-.71 2.36-.83 3.08h-1.11c-.5-1.45-1.46-2.75-2.87-3.9-1.42-1.14-3.19-1.72-5.28-1.72-.93 0-1.86.14-2.78.46-.93.29-1.76.75-2.5 1.35-.75.61-1.36 1.4-1.86 2.36-.49.97-.73 2.12-.73 3.46 0 1.93.53 3.43 1.61 4.49 1.09 1.06 2.42 1.89 4.04 2.5 1.6.6 3.37 1.13 5.28 1.59 1.91.45 3.67 1.09 5.28 1.9 1.6.82 2.94 1.96 4.02 3.41s1.63 3.45 1.63 6c0 1.75-.39 3.48-1.17 5.17-.77 1.7-1.88 3.22-3.33 4.59-1.45 1.35-3.2 2.42-5.23 3.18-2.04.75-4.36 1.13-6.95 1.13-2.84 0-5.22-.27-7.13-.82-1.92-.55-3.52-1.18-4.82-1.9.37-.79.77-1.87 1.17-3.23s.59-2.5.59-3.41h1.12c.3.61.78 1.28 1.43 2z"/><path d="m233.44 272.16c-.09-2.99-.29-5.79-.6-8.39 1.72.3 3.11.44 4.17.44.49 0 1.03-.04 1.61-.13.59-.09 1.29-.19 2.09-.31-.19 2.41-.27 4.83-.27 7.26h.18c3.27-5.45 7.87-8.17 13.8-8.17 1.55 0 3.06.22 4.54.68 1.49.45 2.82 1.07 4.03 1.86 1.21.78 2.24 1.74 3.11 2.86.85 1.12 1.44 2.31 1.75 3.59h.19c1.48-2.91 3.5-5.13 6.06-6.68 2.57-1.54 5.52-2.31 8.85-2.31 2.04 0 3.92.28 5.65.81 1.73.54 3.22 1.4 4.49 2.55s2.26 2.63 2.97 4.44c.71 1.83 1.07 4.01 1.07 6.54 0 1.03-.04 2.16-.1 3.37s-.13 2.61-.18 4.22c-.07 1.6-.12 3.42-.19 5.45-.06 2.02-.09 4.37-.09 7.04 0 1.63.01 3.2.05 4.71.03 1.51.11 3.15.23 4.91-.69-.11-1.36-.18-2.05-.18h-1.94-2.04c-.68 0-1.36.07-2.03.18.19-1.52.38-4.57.6-9.17.21-4.6.32-11.02.32-19.25 0-1.51-.17-2.94-.51-4.27-.33-1.34-.88-2.48-1.61-3.46-.75-.97-1.74-1.73-2.97-2.31-1.24-.57-2.78-.86-4.64-.86-2.21 0-4.1.43-5.65 1.27-1.54.84-2.74 1.85-3.61 3-.49.66-.88 1.32-1.15 1.99-.29.67-.5 1.68-.65 3.05-.16 1.36-.27 3.27-.32 5.71-.07 2.46-.1 5.84-.1 10.13 0 2.6.05 4.98.14 7.13s.2 4.5.32 7.04c-1.42-.11-2.78-.18-4.08-.18-1.29 0-2.64.07-4.07.18.32-3.33.53-6.72.65-10.16.12-3.46.19-6.85.19-10.18 0-2.84-.01-5.07-.05-6.68-.03-1.6-.11-2.87-.23-3.81s-.3-1.72-.51-2.32-.51-1.26-.88-2c-.68-1.14-1.74-2.13-3.2-2.94-1.45-.83-2.95-1.23-4.48-1.23-4.08 0-7.08 1.3-9 3.9-1.91 2.61-2.86 6.28-2.86 10.99v7.73c0 2.71.04 5.58.14 8.57.09 3 .29 5.71.6 8.13-1.42-.11-2.81-.18-4.17-.18-1.37 0-2.75.07-4.17.18.31-2.42.51-5.13.6-8.13.09-2.99.15-5.86.15-8.57v-9.45c0-2.73-.06-5.58-.15-8.59z"/><path d="m351.4 265.76c-2.28 0-4.21.51-5.79 1.55-1.57 1.03-2.87 2.31-3.89 3.85-1.01 1.55-1.79 3.25-2.32 5.1-.52 1.84-.84 3.58-.96 5.21 1.91.07 3.9.13 5.97.19s4.09.09 6.07.09c2.03 0 4.1-.03 6.2-.09s4.14-.12 6.12-.19c0-1.63-.15-3.36-.43-5.17-.27-1.82-.83-3.51-1.66-5.09-.84-1.57-1.99-2.87-3.47-3.9-1.48-1.04-3.43-1.55-5.84-1.55zm-21.39 20.98c0-7.45 1.8-13.29 5.41-17.52 3.62-4.25 8.87-6.36 15.79-6.36 3.28 0 6.1.5 8.48 1.49 2.37 1 4.37 2.33 5.98 4 1.6 1.67 2.79 3.61 3.56 5.86.77 2.24 1.16 4.63 1.16 7.17 0 .61-.01 1.2-.04 1.77-.04.58-.08 1.17-.15 1.78-3.33-.07-6.64-.12-9.9-.19-3.29-.06-6.59-.09-9.92-.09-2.04 0-4.06.03-6.06.09-2.01.07-4.04.12-6.07.19-.07.3-.09.76-.09 1.35v1.18c0 2.37.36 4.57 1.06 6.64.71 2.06 1.74 3.83 3.11 5.31 1.35 1.49 3.02 2.66 4.99 3.54 1.98.88 4.26 1.32 6.86 1.32 1.23 0 2.5-.17 3.79-.5 1.3-.33 2.57-.79 3.8-1.36 1.24-.58 2.39-1.26 3.48-2.05 1.07-.79 2.02-1.63 2.83-2.54l.45.27-.55 4.45c-1.85 1.46-4.15 2.7-6.9 3.73s-5.61 1.54-8.57 1.54c-3.33 0-6.37-.5-9.13-1.5-2.74-1-5.12-2.45-7.12-4.36-2.01-1.9-3.55-4.16-4.64-6.77-1.08-2.59-1.61-5.42-1.61-8.44z"/><path d="m411.88 251.6c-.19 2.3-.32 4.56-.42 6.77-.09 2.2-.2 4.43-.32 6.67.68 0 1.94-.01 3.8-.05 1.85-.03 3.86-.11 6.02-.23-.06.19-.09.52-.09 1v.91 1c0 .42.03.73.09.9-.8-.05-1.64-.1-2.51-.13-.85-.03-1.79-.04-2.78-.04h-4.53c-.06.24-.13 1.21-.23 2.91-.09 1.69-.17 3.7-.23 6.04-.06 2.32-.11 4.75-.14 7.3s-.05 4.81-.05 6.82c0 1.68.05 3.35.15 4.99.09 1.63.38 3.1.88 4.4.49 1.3 1.23 2.35 2.22 3.14.98.78 2.4 1.17 4.26 1.17.49 0 1.15-.05 1.99-.17.83-.13 1.56-.28 2.18-.46v2.18c-1.06.18-2.22.41-3.48.68-1.27.27-2.48.41-3.66.41-3.89 0-6.76-.95-8.61-2.81-1.85-1.88-2.78-4.64-2.78-8.26 0-1.64.03-3.42.09-5.33.06-1.9.14-3.99.24-6.26.09-2.27.16-4.78.22-7.54.07-2.76.1-5.82.1-9.21h-2.97c-.49 0-1.01.01-1.58.04-.54.03-1.13.08-1.75.13.06-.35.11-.7.14-1.03.02-.34.05-.69.05-1.06 0-.3-.03-.6-.05-.9-.03-.3-.08-.61-.14-.91 2.78.18 4.82.28 6.11.28-.05-1.21-.11-2.72-.13-4.55-.03-1.81-.11-3.69-.24-5.62l7.69-3.18z"/><path d="m454.96 280.75c0-2.73-.05-5.59-.15-8.58-.09-3-.29-5.8-.6-8.4 1.74.3 3.13.44 4.17.44 1.06 0 2.45-.14 4.17-.44-.31 2.6-.51 5.4-.6 8.4-.09 2.99-.13 5.85-.13 8.58v9.44c0 2.72.04 5.59.13 8.58.09 3 .29 5.7.6 8.13-1.42-.12-2.81-.18-4.17-.18s-2.75.06-4.17.18c.31-2.43.51-5.13.6-8.13.1-2.99.15-5.86.15-8.58zm-1.31-32.79c0-1.27.47-2.36 1.39-3.27.94-.9 2.05-1.35 3.34-1.35 1.3 0 2.41.45 3.34 1.35.92.91 1.39 2 1.39 3.27 0 1.28-.47 2.37-1.39 3.27-.93.91-2.04 1.37-3.34 1.37-1.29 0-2.4-.46-3.34-1.37-.92-.9-1.39-1.99-1.39-3.27z"/><path d="m533.22 284.56c0-2.3-.24-4.52-.74-6.67-.49-2.16-1.28-4.06-2.36-5.72-1.09-1.67-2.45-3-4.12-4s-3.7-1.5-6.12-1.5c-1.47 0-3.01.29-4.58.87-1.58.57-3.01 1.6-4.31 3.08-1.29 1.49-2.35 3.5-3.15 6.04s-1.2 5.81-1.2 9.81c0 2.6.26 5 .79 7.22.52 2.21 1.29 4.12 2.31 5.76 1.03 1.63 2.32 2.92 3.9 3.87 1.56.93 3.38 1.4 5.41 1.4 2.35 0 4.4-.57 6.16-1.73 1.77-1.14 3.25-2.67 4.45-4.57 1.21-1.92 2.1-4.09 2.69-6.51.58-2.41.87-4.87.87-7.35zm6.85 20.35c0 1.93.03 4.09.06 6.49.02 2.39.08 4.76.13 7.13.07 2.35.15 4.61.24 6.76.08 2.15.2 3.98.32 5.49-1.72-.3-3.11-.45-4.17-.45-1.05 0-2.44.15-4.17.45.12-1.51.24-3.34.32-5.49.1-2.15.18-4.41.24-6.76.06-2.37.11-4.74.14-7.13.02-2.4.04-4.56.04-6.49v-6.82h-.18c-1.79 3.45-4.01 5.94-6.63 7.45s-5.45 2.27-8.47 2.27c-2.28 0-4.58-.35-6.9-1.05-2.32-.69-4.4-1.91-6.25-3.63s-3.36-4.01-4.54-6.85c-1.18-2.85-1.76-6.36-1.76-10.54 0-3.99.58-7.43 1.76-10.31s2.69-5.23 4.54-7.08c1.85-1.84 3.93-3.22 6.25-4.14 2.32-.89 4.62-1.35 6.9-1.35 4.2 0 7.5.93 9.91 2.81s4.14 4.21 5.19 6.99h.18c0-1.45-.06-2.9-.18-4.35-.13-1.46-.32-2.97-.56-4.54 1.73.3 3.12.44 4.17.44 1.06 0 2.45-.14 4.17-.44-.12 1.57-.24 3.45-.32 5.63-.09 2.18-.17 4.45-.24 6.86-.05 2.39-.11 4.79-.13 7.21-.03 2.42-.06 4.66-.06 6.72z"/><path d="m576.39 293.19c0-3.22.04-5.95.14-8.22.09-2.27.13-4.53.13-6.77 0-2.11-.01-4.41-.04-6.9-.04-2.48-.08-5-.13-7.53 1.53.3 2.83.44 3.88.44.99 0 2.25-.14 3.8-.44-.31 3.62-.55 7.61-.7 11.94s-.22 8.76-.22 13.3c0 3.15.27 5.55.83 7.22s1.23 2.92 2.03 3.77c.86.97 1.96 1.77 3.29 2.4 1.33.64 2.89.96 4.68.96 2.6 0 4.75-.56 6.49-1.68 1.72-1.12 2.99-2.5 3.79-4.13.43-1.04.78-1.9 1.02-2.64.25-.72.44-1.69.6-2.9s.25-2.85.28-4.91c.03-2.05.04-4.86.04-8.45v-7.62c0-1.33-.01-2.6-.04-3.81-.03-1.22-.08-2.36-.15-3.45.68.12 1.34.22 1.95.31.62.1 1.27.13 1.95.13.67 0 1.33-.03 1.94-.13.63-.09 1.24-.19 1.86-.31-.31 4.71-.5 9.27-.56 13.66s-.09 9.04-.09 13.94c0 2.73.03 5.4.09 8s.16 5.11.28 7.53c-1.23-.12-2.45-.18-3.61-.18-1.17 0-2.38.06-3.62.18.07-.55.11-1.12.15-1.73.02-.6.04-1.23.04-1.9v-3.9h-.19c-1.6 2.9-3.66 5.03-6.2 6.39-2.54 1.37-5.28 2.05-8.25 2.05-4.81 0-8.59-1.26-11.34-3.77s-4.12-6.13-4.12-10.85z"/><path d="m668.73 265.76c-2.28 0-4.21.51-5.79 1.55-1.57 1.03-2.87 2.31-3.89 3.85-1.01 1.55-1.79 3.25-2.31 5.1-.53 1.84-.85 3.58-.97 5.21 1.91.07 3.9.13 5.97.19s4.09.09 6.07.09c2.03 0 4.1-.03 6.21-.09 2.1-.06 4.13-.12 6.11-.19 0-1.63-.15-3.36-.42-5.17-.28-1.82-.84-3.51-1.67-5.09-.83-1.57-1.99-2.87-3.47-3.9-1.48-1.04-3.42-1.55-5.84-1.55zm-21.39 20.98c0-7.45 1.8-13.29 5.42-17.52 3.61-4.25 8.87-6.36 15.78-6.36 3.28 0 6.11.5 8.49 1.49 2.38 1 4.37 2.33 5.97 4s2.79 3.61 3.57 5.86c.76 2.24 1.15 4.63 1.15 7.17 0 .61-.01 1.2-.04 1.77-.03.58-.08 1.17-.15 1.78-3.33-.07-6.63-.12-9.9-.19-3.28-.06-6.58-.09-9.92-.09-2.03 0-4.06.03-6.06.09-2.01.07-4.03.12-6.07.19-.07.3-.09.76-.09 1.35v1.18c0 2.37.36 4.57 1.07 6.64.7 2.06 1.73 3.83 3.1 5.31 1.36 1.49 3.03 2.66 5 3.54s4.26 1.32 6.85 1.32c1.24 0 2.51-.17 3.79-.5 1.31-.33 2.57-.79 3.81-1.36 1.23-.58 2.39-1.26 3.48-2.05 1.07-.79 2.01-1.63 2.82-2.54l.46.27-.56 4.45c-1.84 1.46-4.15 2.7-6.89 3.73-2.76 1.03-5.61 1.54-8.58 1.54-3.33 0-6.36-.5-9.12-1.5-2.75-1-5.13-2.45-7.13-4.36-2.01-1.9-3.55-4.16-4.64-6.77-1.07-2.59-1.61-5.42-1.61-8.44z"/><path d="m721.76 300.45c.65.73 1.42 1.41 2.32 2.05.9.63 1.91 1.17 3.05 1.59 1.15.42 2.36.63 3.66.63 1.18 0 2.3-.18 3.38-.54 1.09-.37 2.03-.88 2.88-1.55.83-.67 1.49-1.51 1.99-2.55.49-1.02.74-2.2.74-3.53 0-1.88-.54-3.31-1.62-4.32-1.09-.99-2.43-1.82-4.03-2.45-1.62-.63-3.37-1.19-5.28-1.68-1.92-.48-3.67-1.17-5.29-2.04-1.6-.87-2.94-2.04-4.02-3.5-1.08-1.45-1.62-3.44-1.62-5.99 0-2 .34-3.82 1.02-5.49s1.67-3.1 2.96-4.32c1.3-1.21 2.9-2.16 4.82-2.85 1.91-.7 4.11-1.06 6.57-1.06 2.29 0 4.22.31 5.8.91 1.56.61 3.07 1.16 4.49 1.64-.5.91-.96 2.03-1.39 3.36-.44 1.33-.71 2.36-.84 3.08h-1.11c-.5-1.45-1.45-2.75-2.87-3.9-1.42-1.14-3.18-1.72-5.28-1.72-.93 0-1.85.14-2.78.46-.93.29-1.75.75-2.5 1.35-.74.61-1.36 1.4-1.86 2.36-.48.97-.73 2.12-.73 3.46 0 1.93.54 3.43 1.61 4.49 1.09 1.06 2.43 1.89 4.04 2.5 1.6.6 3.37 1.13 5.28 1.59 1.91.45 3.67 1.09 5.28 1.9 1.6.82 2.95 1.96 4.03 3.41 1.07 1.45 1.62 3.45 1.62 6 0 1.75-.39 3.48-1.16 5.17-.78 1.7-1.89 3.22-3.33 4.59-1.46 1.35-3.2 2.42-5.24 3.18-2.03.75-4.36 1.13-6.95 1.13-2.83 0-5.21-.27-7.13-.82s-3.52-1.18-4.82-1.9c.38-.79.76-1.87 1.17-3.23.4-1.36.6-2.5.6-3.41h1.11c.31.61.79 1.28 1.43 2z"/><path d="m829.21 272.16c-.09-2.99-.29-5.79-.6-8.39 1.72.3 3.11.44 4.16.44.5 0 1.04-.04 1.62-.13.59-.09 1.29-.19 2.09-.31-.19 2.41-.28 4.83-.28 7.26h.19c3.27-5.45 7.87-8.17 13.8-8.17 1.54 0 3.05.22 4.53.68 1.49.45 2.83 1.07 4.04 1.86 1.2.78 2.23 1.74 3.1 2.86.86 1.12 1.45 2.31 1.76 3.59h.19c1.48-2.91 3.5-5.13 6.06-6.68 2.56-1.54 5.51-2.31 8.84-2.31 2.04 0 3.93.28 5.65.81 1.74.54 3.23 1.4 4.49 2.55 1.27 1.15 2.26 2.63 2.97 4.44.71 1.83 1.07 4.01 1.07 6.54 0 1.03-.03 2.16-.1 3.37-.05 1.21-.12 2.61-.18 4.22-.06 1.6-.12 3.42-.19 5.45-.05 2.02-.08 4.37-.08 7.04 0 1.63 0 3.2.04 4.71.03 1.51.11 3.15.23 4.91-.69-.11-1.36-.18-2.04-.18h-1.95-2.03c-.68 0-1.36.07-2.04.18.19-1.52.38-4.57.6-9.17.21-4.6.33-11.02.33-19.25 0-1.51-.17-2.94-.52-4.27-.33-1.34-.88-2.48-1.61-3.46-.74-.97-1.73-1.73-2.97-2.31-1.23-.57-2.78-.86-4.63-.86-2.22 0-4.11.43-5.65 1.27-1.55.84-2.75 1.85-3.61 3-.5.66-.88 1.32-1.16 1.99s-.49 1.68-.65 3.05c-.15 1.36-.26 3.27-.32 5.71-.06 2.46-.1 5.84-.1 10.13 0 2.6.06 4.98.15 7.13s.2 4.5.32 7.04c-1.42-.11-2.78-.18-4.08-.18-1.29 0-2.65.07-4.07.18.31-3.33.52-6.72.64-10.16.13-3.46.19-6.85.19-10.18 0-2.84-.01-5.07-.04-6.68-.04-1.6-.11-2.87-.23-3.81-.13-.94-.31-1.72-.52-2.32s-.51-1.26-.87-2c-.68-1.14-1.75-2.13-3.21-2.94-1.44-.83-2.94-1.23-4.48-1.23-4.08 0-7.08 1.3-8.99 3.9-1.91 2.61-2.87 6.28-2.87 10.99v7.73c0 2.71.05 5.58.15 8.57.08 3 .28 5.71.59 8.13-1.42-.11-2.81-.18-4.17-.18s-2.74.07-4.16.18c.31-2.42.51-5.13.6-8.13.09-2.99.14-5.86.14-8.57v-9.45c0-2.73-.05-5.58-.14-8.59z"/><path d="m953.37 284.29c-1.04.37-2.27.67-3.66.91-1.39.23-2.79.5-4.21.77-1.42.26-2.82.62-4.21 1.04s-2.63 1-3.71 1.73-1.94 1.63-2.6 2.72c-.64 1.09-.96 2.48-.96 4.18 0 2.85.83 4.99 2.5 6.45 1.66 1.46 3.51 2.18 5.56 2.18 2.34 0 4.49-.64 6.43-1.92 1.95-1.26 3.44-2.74 4.49-4.44zm-22.88-16.17c2.78-2.05 5.34-3.44 7.69-4.18 2.35-.72 4.75-1.09 7.23-1.09 2.21 0 4.26.32 6.11.96 1.85.63 3.43 1.55 4.72 2.72 1.3 1.18 2.31 2.6 3.06 4.27.74 1.67 1.11 3.49 1.11 5.49 0 3.46-.06 6.9-.18 10.31-.13 3.43-.19 7.04-.19 10.85 0 .73.01 1.5.05 2.33.03.81.16 1.53.42 2.17.24.64.6 1.16 1.06 1.6.46.42 1.16.63 2.09.63.3 0 .63-.01.96-.04.35-.04.67-.15.98-.33v2c-.68.3-1.53.55-2.55.73-1.02.17-2.14.27-3.39.27-1.96 0-3.48-.5-4.53-1.5s-1.67-2.29-1.85-3.85c-2.22 2.17-4.42 3.77-6.58 4.81-2.16 1.02-4.81 1.54-7.96 1.54-1.54 0-3.06-.22-4.55-.64-1.48-.42-2.79-1.11-3.93-2.09-1.15-.97-2.07-2.14-2.78-3.49-.7-1.37-1.06-2.93-1.06-4.68 0-3.63 1.16-6.45 3.47-8.44 2.31-2 5.52-3.34 9.58-4 3.34-.55 5.95-1.02 7.83-1.4 1.89-.4 3.28-.8 4.17-1.24.9-.42 1.44-.92 1.63-1.49.18-.58.27-1.32.27-2.22 0-1.51-.19-2.97-.56-4.37-.36-1.39-.95-2.6-1.75-3.63-.81-1.03-1.86-1.86-3.16-2.5-1.29-.63-2.87-.95-4.71-.95-2.48 0-4.78.54-6.91 1.64-2.13 1.08-3.72 2.6-4.77 4.54h-1.02z"/><path d="m1018.62 270.21c-.89-.3-1.8-.45-2.73-.45-1.48 0-2.81.33-3.98 1s-2.16 1.55-2.97 2.68c-.8 1.12-1.41 2.44-1.85 3.99-.43 1.54-.65 3.2-.65 4.96v9.98c0 4.06.02 7.16.06 9.31.02 2.14.13 3.89.32 5.22-1.24-.12-2.47-.17-3.71-.17-1.36 0-2.65.05-3.89.17.18-2.05.29-4.85.33-8.4.03-3.54.04-7.89.04-13.03v-2.9c0-2.37-.01-5.08-.04-8.18-.04-3.09-.15-6.63-.33-10.63.68.13 1.32.23 1.95.33.61.09 1.26.13 1.94.13.56 0 1.14-.04 1.76-.13.61-.1 1.27-.2 1.95-.33-.25 2.18-.39 3.91-.41 5.19-.05 1.26-.06 2.48-.06 3.62l.19.09c3.64-6.54 7.71-9.81 12.23-9.81.55 0 1.02.04 1.43.09.4.07.92.22 1.53.46-.32.73-.49 1.83-.56 3.31-.05 1.49-.09 2.84-.09 4.05l-.64.45c-.31-.36-.92-.7-1.82-1z"/><path d="m1055.72 280.75c0-2.73-.04-5.59-.14-8.58-.09-3-.29-5.8-.6-8.4 1.73.3 3.12.44 4.17.44s2.44-.14 4.16-.44c-.31 2.6-.51 5.4-.59 8.4-.09 2.99-.14 5.85-.14 8.58v9.44c0 2.72.05 5.59.14 8.58.08 3 .28 5.7.59 8.13-1.42-.12-2.81-.18-4.16-.18-1.36 0-2.75.06-4.17.18.31-2.43.51-5.13.6-8.13.1-2.99.14-5.86.14-8.58zm-1.3-32.79c0-1.27.47-2.36 1.39-3.27.93-.9 2.05-1.35 3.34-1.35 1.3 0 2.41.45 3.33 1.35.92.91 1.39 2 1.39 3.27 0 1.28-.47 2.37-1.39 3.27-.92.91-2.03 1.37-3.33 1.37-1.29 0-2.41-.46-3.34-1.37-.92-.9-1.39-1.99-1.39-3.27z"/><path d="m1129.91 271.08c-1.79-2.34-4.26-3.51-7.4-3.51-4.33 0-7.5 1.31-9.5 3.92-2.01 2.6-3.01 6.26-3.01 10.98v7.72c0 2.72.04 5.59.13 8.58.1 3 .3 5.71.6 8.13-1.41-.12-2.8-.18-4.15-.18-1.37 0-2.76.06-4.17.18.3-2.42.5-5.13.6-8.13.09-2.99.13-5.86.13-8.58v-9.44c0-2.73-.04-5.59-.13-8.58-.1-3-.3-5.8-.6-8.4 1.72.3 3.11.45 4.17.45.48 0 1.03-.05 1.61-.14.59-.09 1.29-.19 2.09-.31-.19 2.41-.28 4.84-.28 7.26h.19c1.72-2.6 3.79-4.61 6.2-6.03 2.4-1.43 5.28-2.14 8.62-2.14 1.72 0 3.47.25 5.22.72 1.77.49 3.35 1.32 4.77 2.5 1.43 1.18 2.58 2.78 3.49 4.82.88 2.02 1.34 4.61 1.34 7.76 0 2.6-.07 5.28-.19 8.04s-.19 5.67-.19 8.76v5.9c0 .97.03 1.92.05 2.86.03.94.07 1.83.14 2.68-1.23-.12-2.53-.18-3.89-.18-1.3 0-2.57.06-3.8.18.12-3.15.26-6.38.42-9.72.16-3.32.23-6.75.23-10.26v-5.54c0-4.53-.9-7.97-2.69-10.3z"/><path d="m1178.13 300.45c.64.73 1.41 1.41 2.31 2.05.9.63 1.91 1.17 3.06 1.59 1.14.42 2.35.63 3.65.63 1.18 0 2.31-.18 3.38-.54 1.09-.37 2.04-.88 2.88-1.55.83-.67 1.49-1.51 1.99-2.55.49-1.02.74-2.2.74-3.53 0-1.88-.54-3.31-1.62-4.32-1.08-.99-2.43-1.82-4.03-2.45-1.61-.63-3.37-1.19-5.28-1.68-1.92-.48-3.67-1.17-5.28-2.04s-2.95-2.04-4.03-3.5c-1.08-1.45-1.62-3.44-1.62-5.99 0-2 .34-3.82 1.02-5.49s1.67-3.1 2.96-4.32c1.3-1.21 2.9-2.16 4.82-2.85 1.92-.7 4.11-1.06 6.57-1.06 2.3 0 4.22.31 5.8.91 1.58.61 3.07 1.16 4.49 1.64-.5.91-.96 2.03-1.39 3.36s-.71 2.36-.83 3.08h-1.12c-.5-1.45-1.45-2.75-2.86-3.9-1.43-1.14-3.18-1.72-5.29-1.72-.93 0-1.85.14-2.78.46-.93.29-1.75.75-2.5 1.35-.74.61-1.35 1.4-1.85 2.36-.49.97-.74 2.12-.74 3.46 0 1.93.54 3.43 1.61 4.49 1.09 1.06 2.43 1.89 4.04 2.5 1.6.6 3.37 1.13 5.28 1.59 1.91.45 3.67 1.09 5.28 1.9 1.6.82 2.95 1.96 4.03 3.41s1.62 3.45 1.62 6c0 1.75-.39 3.48-1.16 5.17-.78 1.7-1.89 3.22-3.33 4.59-1.46 1.35-3.2 2.42-5.24 3.18-2.03.75-4.36 1.13-6.95 1.13-2.83 0-5.21-.27-7.12-.82-1.93-.55-3.53-1.18-4.83-1.9.38-.79.77-1.87 1.17-3.23s.6-2.5.6-3.41h1.11c.31.61.79 1.28 1.44 2z"/><path d="m43.59 123.78v71.35h22.55c7.75 0 14.65-1.52 20.69-4.56 6.05-3.04 10.77-7.35 14.19-12.93 3.41-5.6 5.11-11.8 5.11-18.64 0-12.77-4.3-21.82-12.91-27.18-8.59-5.36-20.72-8.04-36.38-8.04zm0-70.32v61.66h9.74c6.74 0 12.32-.32 16.77-.97 4.44-.64 8.84-1.96 13.17-3.93 5.72-2.74 10.19-6.53 13.4-11.4 3.2-4.86 4.81-10.48 4.81-16.86 0-7.08-1.56-12.72-4.7-16.98-3.13-4.26-7.67-7.24-13.63-8.95s-13.3-2.57-22.03-2.57zm-43.59 150.33h22.67v-158.99h46.62c11.77 0 21.55 1.03 29.35 3.08 7.78 2.04 13.69 5.46 17.72 10.21 4.04 4.74 6.05 11.07 6.05 18.96 0 5.25-.94 10.09-2.79 14.53-1.86 4.45-4.51 8.46-7.91 12.03-3.41 3.57-7.4 6.58-11.97 9.01-4.12 2.12-9.11 4.02-15 5.69 2.25 0 4.61.21 7.09.64 2.48.41 5.15 1.03 8.02 1.87 5.27 1.37 9.96 3.5 14.08 6.39 4.1 2.65 7.52 6.32 10.28 10.99 2.74 4.67 4.12 10.27 4.12 16.81 0 16.49-7.12 29.63-21.39 39.43-4.1 2.66-8.98 4.75-14.64 6.27-5.11 1.22-10.58 2.09-16.39 2.62l-19.3.46h-56.61z"/><path d="m204.04 204.47v-159.67l6.05.46 4.41.23 4.07-.23 6.39-.46v159.67l-4.3-.34c-1.39 0-2.37-.08-2.9-.22l-3.26-.13-3.6.13-3.03.22z"/><path d="m448.41 122.93c0-7.67-.39-14.16-1.15-19.48-.78-5.31-2.32-10.75-4.61-16.33-2.28-5.58-5.36-10.76-9.24-15.55-3.86-4.78-8.38-8.82-13.54-12.13-5.14-3.29-10.9-5.86-17.25-7.69-6.36-1.82-12.6-2.73-18.72-2.73-10.31 0-19.65 1.86-28.02 5.58-8.36 3.72-15.46 9.01-21.27 15.88-5.82 6.88-10.23 15.19-13.25 24.94-3.03 9.77-4.54 20.42-4.54 31.96 0 11.3 1.61 21.42 4.83 30.34 3.21 8.93 7.87 16.53 13.95 22.83 6.08 6.31 13.12 11.03 21.1 14.18 7.98 3.16 16.34 4.73 25.1 4.73 11.24 0 21.11-2.37 29.59-7.12s15.42-10.96 20.81-18.68c5.39-7.71 9.43-16.16 12.14-25.39 2.72-9.23 4.07-17.67 4.07-25.34zm-67.3 84.28c-12.95 0-24.85-1.94-35.75-5.81-10.89-3.87-20.19-9.47-27.89-16.8-7.72-7.32-13.67-16.11-17.85-26.36-2.09-5.17-3.65-10.46-4.65-15.89-1.01-5.43-1.51-11.34-1.51-17.71 0-12.45 2.2-23.85 6.63-34.17 4.41-10.32 10.73-19.21 18.94-26.65 7.91-7.14 17.19-12.66 27.84-16.57s22.23-5.87 34.7-5.87c11.47 0 22.63 1.58 33.48 4.72 10.85 3.16 20.52 8 29 14.52 8.49 6.54 15.24 14.87 20.23 25.01 5 10.14 7.5 21.96 7.5 35.47 0 16.86-3.83 31.83-11.5 44.88-7.67 13.06-18.45 23.19-32.32 30.41-13.88 7.21-29.49 10.82-46.85 10.82z"/><path d="m595.49 56.08v148.85l-4.28-.34c-1.39 0-2.34-.08-2.89-.24l-3.23-.11-4.85.23-5.67.46v-148.85c-16.43 0-33.79.91-52.08 2.74l.47-3.76.23-3.19-.12-2.28-.23-1.83-.35-2.96h122.76l-.47 4.22-.23 2.85.23 2.84.47 4.11-23.02-1.94c-3.02 0-6.28-.07-9.77-.22-8.83-.39-14.49-.58-16.97-.58z"/><path d="m828.71 111.81v-67l6.05.45 4.41.23 4.18-.23 6.28-.45v159.66l-4.3-.34c-1.32 0-2.24-.07-2.79-.22l-3.37-.11-3.6.11-3.03.22-3.83.34v-80.23l-16.75-.46-19.44-.79h-13.85-13.98c-2.32 0-5.8.13-10.46.4-4.66.26-7.68.39-9.08.39l-16.76.46v80.23l-4.28-.34c-1.39 0-2.36-.07-2.89-.22l-3.34-.11-4.75.22-5.66.45v-159.66l6.01.45 4.4.23 4.15-.23 6.36-.45v67l50.28 1.15c7.13-.3 15.53-.58 25.19-.8 9.66-.23 17.94-.35 24.85-.35z"/><path d="m1008.52 131.65-26.34-59.62-25.88 59.62zm-17.74-90.27 71.37 163.09-5-.34h-1.39c-.39 0-1.04-.07-1.98-.23l-3.94-.11-5.94.22-6.75.46c-4.1-11.7-8.17-22.64-12.2-32.82s-8.29-20.25-12.79-30.19h-60.45l-9.33 22.99-7.66 20.06c-2.63 7.23-4.84 13.88-6.61 19.96l-3.61-.34c-1.15 0-1.97-.07-2.43-.23l-2.79-.11-2.89.11-2.34.23-3.01.34 74.28-163.09h5.46z"/><path d="m1144.03 44.8v148.05c1.54 0 7.96-.16 19.23-.46 11.29-.3 19.24-.45 23.89-.45 2.79 0 6.24-.27 10.34-.8l12.33-1.37-.47 4.21-.23 2.86.23 2.85.47 4.1h-86.72v-158.99l6.05.46 4.41.23 4.3-.23z"/><path d="m162.04 1.47c4.42 2.77 11.3 6.23 20.42 7.35 19.95 2.47 31.13-8.61 51.04-8.82 9.17-.09 22.06 2.1 37.77 12.5-22.17-4.69-37.77-3.1-47.98-.73-14.45 3.33-22.02 9.14-35.73 7.35-2.21-.29-13.32-1.75-20.41-8.83-3.36-3.34-4.6-6.72-5.11-8.82z"/></g></svg>