<svg fill="none" height="18" viewBox="0 0 18 18" width="18" xmlns="http://www.w3.org/2000/svg"><g stroke="#fff" stroke-linecap="round" stroke-linejoin="round"><path d="m9.06684 9-.07465 7.2289"/><path d="m15.4609 12.3281v-6.65615c0-.09961-.0264-.19744-.0766-.28348-.0502-.08603-.1224-.1572-.2091-.20621l-5.90623-3.33832c-.08444-.04773-.17979-.07281-.27678-.07281-.097 0-.19234.02508-.27679.07281l-5.90625 3.33832c-.08671.04901-.15886.12018-.20906.20621-.0502.08604-.07665.18387-.07665.28348v6.65615c0 .0996.02645.1974.07665.2834.0502.0861.12235.1572.20906.2062l5.90625 3.3384c.08445.0477.17979.0728.27679.0728.09699 0 .19234-.0251.27678-.0728l5.90623-3.3384c.0867-.049.1589-.1201.2091-.2062.0502-.086.0766-.1838.0766-.2834z"/><path d="m15.384 5.38785-6.31706 3.61217-6.46587-3.61294"/><path d="m12.4469 10.4422v-3.37502l-6.52356-3.64514"/></g></svg>